<mxfile host="app.diagrams.net" modified="2023-03-29T01:07:49.287Z" agent="Mozilla/5.0 (Windows NT 10.0; Win64; x64) AppleWebKit/537.36 (KHTML, like Gecko) Chrome/111.0.0.0 Safari/537.36" etag="xLBAXZ1USY8sGvWtL4x-" version="21.1.1" type="github">
  <diagram name="PÃ¡gina-1" id="Yw2LMjWqoQlrTrZ_m-yO">
    <mxGraphModel dx="922" dy="1013" grid="0" gridSize="10" guides="1" tooltips="1" connect="1" arrows="1" fold="1" page="0" pageScale="1" pageWidth="827" pageHeight="1169" math="0" shadow="0">
      <root>
        <mxCell id="0" />
        <mxCell id="1" parent="0" />
        <mxCell id="AQqeG9Lvjbw9hT7cpUTG-1" value="Cliente" style="shape=umlActor;verticalLabelPosition=bottom;verticalAlign=top;html=1;outlineConnect=0;fontSize=16;" vertex="1" parent="1">
          <mxGeometry x="-25" y="-84" width="30" height="60" as="geometry" />
        </mxCell>
        <mxCell id="AQqeG9Lvjbw9hT7cpUTG-2" value="Secretaria&lt;br&gt;Vendedor" style="shape=umlActor;verticalLabelPosition=bottom;verticalAlign=top;html=1;outlineConnect=0;fontSize=16;" vertex="1" parent="1">
          <mxGeometry x="-23" y="94" width="30" height="60" as="geometry" />
        </mxCell>
        <mxCell id="AQqeG9Lvjbw9hT7cpUTG-3" value="Administrador" style="shape=umlActor;verticalLabelPosition=bottom;verticalAlign=top;html=1;outlineConnect=0;fontSize=16;" vertex="1" parent="1">
          <mxGeometry x="390" y="-84" width="30" height="60" as="geometry" />
        </mxCell>
        <mxCell id="AQqeG9Lvjbw9hT7cpUTG-4" value="Repartidor" style="shape=umlActor;verticalLabelPosition=bottom;verticalAlign=top;html=1;outlineConnect=0;fontSize=16;" vertex="1" parent="1">
          <mxGeometry x="393" y="105" width="30" height="60" as="geometry" />
        </mxCell>
        <mxCell id="AQqeG9Lvjbw9hT7cpUTG-5" value="Gestionar Pedidos" style="ellipse;whiteSpace=wrap;html=1;fontSize=16;" vertex="1" parent="1">
          <mxGeometry x="130" y="-137" width="120" height="80" as="geometry" />
        </mxCell>
        <mxCell id="AQqeG9Lvjbw9hT7cpUTG-6" value="" style="endArrow=none;dashed=1;html=1;rounded=0;fontSize=12;startSize=8;endSize=8;curved=1;exitX=0.5;exitY=0.5;exitDx=0;exitDy=0;exitPerimeter=0;" edge="1" parent="1" source="AQqeG9Lvjbw9hT7cpUTG-1" target="AQqeG9Lvjbw9hT7cpUTG-5">
          <mxGeometry width="50" height="50" relative="1" as="geometry">
            <mxPoint x="175" y="216" as="sourcePoint" />
            <mxPoint x="225" y="166" as="targetPoint" />
          </mxGeometry>
        </mxCell>
        <mxCell id="AQqeG9Lvjbw9hT7cpUTG-7" value="" style="endArrow=none;dashed=1;html=1;rounded=0;fontSize=12;startSize=8;endSize=8;curved=1;exitX=0.5;exitY=0.5;exitDx=0;exitDy=0;exitPerimeter=0;entryX=0;entryY=1;entryDx=0;entryDy=0;" edge="1" parent="1" source="AQqeG9Lvjbw9hT7cpUTG-2" target="AQqeG9Lvjbw9hT7cpUTG-5">
          <mxGeometry width="50" height="50" relative="1" as="geometry">
            <mxPoint x="175" y="216" as="sourcePoint" />
            <mxPoint x="225" y="166" as="targetPoint" />
          </mxGeometry>
        </mxCell>
        <mxCell id="AQqeG9Lvjbw9hT7cpUTG-8" value="Gestionar Inventarios" style="ellipse;whiteSpace=wrap;html=1;fontSize=16;" vertex="1" parent="1">
          <mxGeometry x="130" y="-46" width="120" height="80" as="geometry" />
        </mxCell>
        <mxCell id="AQqeG9Lvjbw9hT7cpUTG-9" value="" style="endArrow=none;dashed=1;html=1;rounded=0;fontSize=12;startSize=8;endSize=8;curved=1;exitX=1;exitY=0.5;exitDx=0;exitDy=0;" edge="1" parent="1" source="AQqeG9Lvjbw9hT7cpUTG-8" target="AQqeG9Lvjbw9hT7cpUTG-3">
          <mxGeometry width="50" height="50" relative="1" as="geometry">
            <mxPoint x="175" y="207" as="sourcePoint" />
            <mxPoint x="225" y="157" as="targetPoint" />
          </mxGeometry>
        </mxCell>
        <mxCell id="AQqeG9Lvjbw9hT7cpUTG-10" value="" style="endArrow=none;dashed=1;html=1;rounded=0;fontSize=12;startSize=8;endSize=8;curved=1;entryX=0;entryY=0.5;entryDx=0;entryDy=0;" edge="1" parent="1" source="AQqeG9Lvjbw9hT7cpUTG-2" target="AQqeG9Lvjbw9hT7cpUTG-8">
          <mxGeometry width="50" height="50" relative="1" as="geometry">
            <mxPoint x="175" y="207" as="sourcePoint" />
            <mxPoint x="225" y="157" as="targetPoint" />
          </mxGeometry>
        </mxCell>
        <mxCell id="AQqeG9Lvjbw9hT7cpUTG-11" value="" style="endArrow=none;dashed=1;html=1;dashPattern=1 3;strokeWidth=2;rounded=0;fontSize=12;startSize=8;endSize=8;curved=1;entryX=1;entryY=0.5;entryDx=0;entryDy=0;" edge="1" parent="1" source="AQqeG9Lvjbw9hT7cpUTG-4" target="AQqeG9Lvjbw9hT7cpUTG-8">
          <mxGeometry width="50" height="50" relative="1" as="geometry">
            <mxPoint x="175" y="207" as="sourcePoint" />
            <mxPoint x="225" y="157" as="targetPoint" />
          </mxGeometry>
        </mxCell>
        <mxCell id="AQqeG9Lvjbw9hT7cpUTG-12" value="Gestionar Envios" style="ellipse;whiteSpace=wrap;html=1;fontSize=16;" vertex="1" parent="1">
          <mxGeometry x="130" y="48" width="120" height="80" as="geometry" />
        </mxCell>
        <mxCell id="AQqeG9Lvjbw9hT7cpUTG-13" value="" style="endArrow=none;dashed=1;html=1;rounded=0;fontSize=12;startSize=8;endSize=8;curved=1;entryX=0;entryY=0.5;entryDx=0;entryDy=0;" edge="1" parent="1" source="AQqeG9Lvjbw9hT7cpUTG-2" target="AQqeG9Lvjbw9hT7cpUTG-12">
          <mxGeometry width="50" height="50" relative="1" as="geometry">
            <mxPoint x="175" y="198" as="sourcePoint" />
            <mxPoint x="225" y="148" as="targetPoint" />
          </mxGeometry>
        </mxCell>
        <mxCell id="AQqeG9Lvjbw9hT7cpUTG-14" value="Gestionar Reportes" style="ellipse;whiteSpace=wrap;html=1;fontSize=16;" vertex="1" parent="1">
          <mxGeometry x="138" y="228" width="120" height="80" as="geometry" />
        </mxCell>
        <mxCell id="AQqeG9Lvjbw9hT7cpUTG-15" value="" style="endArrow=none;dashed=1;html=1;rounded=0;fontSize=12;startSize=8;endSize=8;curved=1;exitX=1;exitY=0;exitDx=0;exitDy=0;" edge="1" parent="1" source="AQqeG9Lvjbw9hT7cpUTG-14">
          <mxGeometry width="50" height="50" relative="1" as="geometry">
            <mxPoint x="175" y="189" as="sourcePoint" />
            <mxPoint x="386" y="-48" as="targetPoint" />
          </mxGeometry>
        </mxCell>
        <mxCell id="AQqeG9Lvjbw9hT7cpUTG-16" value="" style="endArrow=none;dashed=1;html=1;rounded=0;fontSize=12;startSize=8;endSize=8;curved=1;entryX=0;entryY=0.5;entryDx=0;entryDy=0;" edge="1" parent="1" source="AQqeG9Lvjbw9hT7cpUTG-2" target="AQqeG9Lvjbw9hT7cpUTG-14">
          <mxGeometry width="50" height="50" relative="1" as="geometry">
            <mxPoint x="175" y="189" as="sourcePoint" />
            <mxPoint x="225" y="139" as="targetPoint" />
          </mxGeometry>
        </mxCell>
        <mxCell id="AQqeG9Lvjbw9hT7cpUTG-17" value="" style="endArrow=none;dashed=1;html=1;rounded=0;fontSize=12;startSize=8;endSize=8;curved=1;entryX=0;entryY=0.3333333333333333;entryDx=0;entryDy=0;entryPerimeter=0;exitX=1;exitY=0.5;exitDx=0;exitDy=0;" edge="1" parent="1" source="AQqeG9Lvjbw9hT7cpUTG-14" target="AQqeG9Lvjbw9hT7cpUTG-4">
          <mxGeometry width="50" height="50" relative="1" as="geometry">
            <mxPoint x="175" y="189" as="sourcePoint" />
            <mxPoint x="225" y="139" as="targetPoint" />
          </mxGeometry>
        </mxCell>
        <mxCell id="AQqeG9Lvjbw9hT7cpUTG-18" value="Gestionar choferes" style="ellipse;whiteSpace=wrap;html=1;fontSize=16;" vertex="1" parent="1">
          <mxGeometry x="133" y="141" width="120" height="80" as="geometry" />
        </mxCell>
        <mxCell id="AQqeG9Lvjbw9hT7cpUTG-19" value="" style="endArrow=none;dashed=1;html=1;rounded=0;fontSize=12;startSize=8;endSize=8;curved=1;entryX=0;entryY=0.5;entryDx=0;entryDy=0;" edge="1" parent="1" source="AQqeG9Lvjbw9hT7cpUTG-2" target="AQqeG9Lvjbw9hT7cpUTG-18">
          <mxGeometry width="50" height="50" relative="1" as="geometry">
            <mxPoint x="175" y="180" as="sourcePoint" />
            <mxPoint x="225" y="130" as="targetPoint" />
          </mxGeometry>
        </mxCell>
        <mxCell id="AQqeG9Lvjbw9hT7cpUTG-20" value="DIAGRAMA DE CASOS DE USO - SISTEMA VENTA DE GAS" style="text;html=1;align=center;verticalAlign=middle;resizable=0;points=[];autosize=1;strokeColor=none;fillColor=none;fontSize=16;" vertex="1" parent="1">
          <mxGeometry x="-25" y="346" width="460" height="31" as="geometry" />
        </mxCell>
      </root>
    </mxGraphModel>
  </diagram>
</mxfile>
